<svg width="72" height="239" viewBox="0 0 72 239" fill="none" xmlns="http://www.w3.org/2000/svg">
<path d="M49.1179 5.51709C49.1179 5.51709 51.2176 10.7088 51.1645 12.8085C51.1113 14.9082 49.8001 21.6193 49.1179 23.7145C48.4358 25.8142 47.6517 27.6482 46.1279 28.5917C44.604 29.5352 44.923 29.4821 44.9761 30.7401C45.0293 31.9982 44.2939 36.9285 44.2939 36.9285L40.2053 42.8555L29.5606 28.0158C29.5606 28.0158 29.5074 26.9128 30.5041 26.5983C31.5008 26.2838 32.5506 25.7079 32.5506 25.7079V21.4066C32.5506 21.4066 30.1896 15.9536 31.7134 14.9038C33.2328 13.8539 34.2827 14.6424 34.2827 14.6424C34.2827 14.6424 32.7544 8.71981 36.1653 7.72311C39.5718 6.72642 49.1179 5.51709 49.1179 5.51709Z" fill="white"/>
<path d="M37.3617 219.275L36.7637 225.481C36.7637 225.481 45.3574 226.079 47.3907 226.079C49.4239 226.079 51.2091 226.916 54.7928 227.39C58.3765 227.869 71.0279 227.271 71.0279 227.271C71.0279 227.271 70.7886 222.974 69.3578 221.898C67.927 220.821 57.9113 217.339 56.1129 216.874C54.3144 216.409 37.3617 219.275 37.3617 219.275Z" fill="#F3B63F"/>
<path d="M53.9776 93.6869C53.9776 93.6869 53.7915 96.1764 54.3452 97.8376C54.8989 99.4987 58.4029 110.015 58.2213 122.928C58.0352 135.84 56.3032 178.503 56.4937 185.604C56.6841 192.705 55.1514 204.409 54.1902 206.136C53.2289 207.864 52.848 208.821 52.848 208.821L56.1083 216.878C56.1083 216.878 52.0772 217.84 49.3928 218.797C46.7083 219.753 36.7281 220.524 36.7281 220.524C36.7281 220.524 35.3859 213.042 35.3859 209.202C35.3859 205.366 36.7281 161.617 36.3471 156.82C35.9662 152.022 33.4678 90.8164 33.4678 90.8164L53.9776 93.6869Z" fill="#031F43"/>
<path d="M39.231 212.98C39.231 212.98 45.9155 210.89 48.343 210.548C51.0761 210.167 52.848 208.816 52.848 208.816" stroke="white" stroke-width="0.55197" stroke-linecap="round" stroke-linejoin="round"/>
<path d="M56.0947 219.319C56.0947 219.319 57.1889 217.769 59.5455 217.995" stroke="white" stroke-width="0.55197" stroke-linecap="round" stroke-linejoin="round"/>
<path d="M58.4517 220.356C58.4517 220.356 59.5458 218.806 61.9024 219.032" stroke="white" stroke-width="0.55197" stroke-linecap="round" stroke-linejoin="round"/>
<path d="M61.1538 221.104C61.1538 221.104 62.248 219.554 64.6046 219.78" stroke="white" stroke-width="0.55197" stroke-linecap="round" stroke-linejoin="round"/>
<path d="M24.2581 223.785C24.2581 223.785 25.5383 227.634 26.9735 229.902C28.4043 232.17 29.4808 235.873 29.4808 236.587C29.4808 237.3 25.4231 238.615 23.6291 238.735C21.835 238.855 15.7485 237.539 14.1981 235.63C12.6477 233.72 11.9301 231.931 11.3321 231.452C10.734 230.974 9.30322 229.065 9.30322 229.065C9.30322 229.065 9.54243 221.902 9.78164 221.423C10.0208 220.945 18.8538 219.514 21.1218 220.347C23.3899 221.18 24.2581 223.785 24.2581 223.785Z" fill="#F3B63F"/>
<path d="M43.6385 130.348C43.448 131.309 38.2652 153.374 37.1134 159.704C35.9617 166.034 26.9427 206.522 26.9427 206.522C26.9427 206.522 27.5186 212.852 27.3281 214.389C27.1376 215.926 24.4487 218.035 24.4487 218.035L24.2583 223.789C24.2583 223.789 20.803 221.68 17.3523 222.061C13.8971 222.447 10.8272 225.131 9.48502 222.252C8.1428 219.372 10.4463 213.618 10.4463 213.618C10.4463 213.618 11.0221 209.011 11.0221 206.517C11.0221 204.023 12.9402 184.262 13.1307 174.858C13.3212 165.458 17.3523 149.148 17.9281 144.735C18.504 140.323 16.9669 111.543 16.7764 106.555C16.5859 101.567 19.4608 93.1244 19.4608 93.1244L40.1567 88.2782" fill="#031F43"/>
<path d="M43.6385 130.348C43.448 131.309 38.2652 153.374 37.1134 159.704C35.9617 166.034 26.9427 206.522 26.9427 206.522C26.9427 206.522 27.5186 212.852 27.3281 214.389C27.1376 215.926 24.4487 218.035 24.4487 218.035L24.2583 223.789C24.2583 223.789 20.803 221.68 17.3523 222.061C13.8971 222.447 10.8272 225.131 9.48502 222.252C8.1428 219.372 10.4463 213.618 10.4463 213.618C10.4463 213.618 11.0221 209.011 11.0221 206.517C11.0221 204.023 12.9402 184.262 13.1307 174.858C13.3212 165.458 17.3523 149.148 17.9281 144.735C18.504 140.323 16.9669 111.543 16.7764 106.555C16.5859 101.567 19.4608 93.1244 19.4608 93.1244L40.1567 88.2782" stroke="white" stroke-width="0.275985" stroke-miterlimit="10"/>
<path d="M7.16846 78.9314C7.16846 78.9314 9.13084 89.1508 8.71887 92.4554C8.30691 95.76 10.2693 105.98 11.0932 109.59C11.9172 113.204 13.9814 123.114 14.0877 125.59C14.1896 128.066 14.606 133.227 14.9117 134.675C15.2218 136.12 18.6283 140.665 19.6604 140.868C20.6925 141.076 22.7568 141.178 23.8908 140.766C25.0248 140.354 26.1633 139.632 26.1633 139.632C26.1633 139.632 27.7137 140.151 28.1257 139.942C28.5376 139.734 27.1954 132.819 26.9916 130.963C26.7834 129.107 23.687 124.562 22.8631 123.22C22.0392 121.878 19.9749 116.509 19.7667 115.375C19.5585 114.241 18.5352 101.062 18.1676 96.4511C17.7999 91.8397 17.5961 83.6845 17.5961 83.6845L7.16846 78.9314Z" fill="white" stroke="#031F43" stroke-width="0.55197" stroke-linecap="round" stroke-linejoin="round"/>
<path d="M26.1629 139.628C26.1629 139.628 25.051 136.97 24.6346 135.322C24.2227 133.674 24.2227 132.518 24.2227 132.518" stroke="#031F43" stroke-width="0.55197" stroke-linecap="round" stroke-linejoin="round"/>
<path d="M12.4482 219.231C12.4482 219.231 21.4539 217.716 24.4529 218.03" stroke="white" stroke-width="0.55197" stroke-linecap="round" stroke-linejoin="round"/>
<path d="M15.7798 215.82C15.7798 215.82 21.0512 213.003 22.8674 208.369" stroke="white" stroke-width="0.55197" stroke-linecap="round" stroke-linejoin="round"/>
<path d="M16.2847 224.263C16.2847 224.263 19.8462 223.629 22.225 224.422" stroke="white" stroke-width="0.55197" stroke-linecap="round" stroke-linejoin="round"/>
<path d="M17.0776 226.642C17.0776 226.642 20.6392 226.008 23.0179 226.801" stroke="white" stroke-width="0.55197" stroke-linecap="round" stroke-linejoin="round"/>
<path d="M17.813 228.968C17.813 228.968 21.3745 228.334 23.7533 229.127" stroke="white" stroke-width="0.55197" stroke-linecap="round" stroke-linejoin="round"/>
<path d="M28.3868 33.0701C28.3868 33.0701 14.7919 38.7933 12.9535 40.738C11.1152 42.6782 5.59569 58.931 3.95668 64.1448C2.31767 69.3587 0.377441 79.0687 0.377441 79.0687C0.377441 79.0687 6.51266 80.2957 9.8837 81.7265C13.2592 83.1574 17.7554 85.4077 17.7554 85.4077C17.7554 85.4077 16.6302 94.9139 18.1629 96.4466C19.6956 97.9793 27.0579 97.1643 32.1654 96.0391C37.2729 94.9139 54.0395 94.5064 54.0395 94.5064C54.0395 94.5064 58.1282 92.0523 58.8458 90.5196C59.5635 88.9869 58.7439 70.28 58.7439 70.28L64.3653 69.2568C64.3653 69.2568 61.6056 49.0172 59.4571 45.5398C57.3087 42.0625 47.4968 35.1122 45.9641 34.6028C45.3616 34.4034 42.5266 41.1632 39.3017 40.8975C34.3138 40.4899 28.3868 33.0701 28.3868 33.0701Z" fill="#12594D"/>
<path d="M17.7554 85.4078C17.7554 85.4078 20.0057 73.3456 19.9038 64.9645C19.8019 56.5834 18.3711 49.0173 18.3711 49.0173" stroke="#031F43" stroke-width="0.55197" stroke-linecap="round" stroke-linejoin="round"/>
<path d="M57.3179 49.8324L58.7487 70.2757" stroke="#031F43" stroke-width="0.55197" stroke-linecap="round" stroke-linejoin="round"/>
<path d="M45.105 21.9116C46.208 21.8141 47.2446 21.1585 47.2446 21.1585L45.8536 16.0554C45.8536 16.0554 46.1991 13.0831 49.5968 12.9679" stroke="#031F43" stroke-width="0.55197" stroke-linecap="round" stroke-linejoin="round"/>
<path d="M47.1293 24.4676L42.5002 23.657C42.5002 23.657 42.4427 25.9029 44.0817 26.2883C45.7207 26.6781 47.1293 24.4676 47.1293 24.4676Z" stroke="#031F43" stroke-width="0.55197" stroke-linecap="round" stroke-linejoin="round"/>
<path d="M32.4708 23.1208L31.7798 30.1775" stroke="#031F43" stroke-width="0.55197" stroke-linecap="round" stroke-linejoin="round"/>
<path d="M31.3812 23.5196C32.0457 23.9227 32.9051 23.5772 33.1221 22.8285C33.2683 22.3103 33.3613 21.7654 33.2063 21.4907C32.8608 20.8794 31.5496 20.184 31.7843 18.8462C32.0191 17.5084 33.1399 16.1972 33.76 17.8185C34.3802 19.4398 34.677 19.741 35.4699 19.2227C36.2628 18.7044 34.6903 12.392 36.1565 11.0587C37.6228 9.72531 40.2895 11.3953 41.8443 11.4529C43.3992 11.5105 45.3527 12.6977 47.9441 10.093C50.5355 7.48385 50.4691 6.86368 50.788 4.98103C51.1114 3.09839 51.0671 1.56126 51.0671 1.56126C51.0671 1.56126 47.4701 2.12384 43.9839 0.799343C40.4977 -0.525155 33.3658 -0.498575 30.1055 3.16927C26.8452 6.83711 26.6724 7.91796 27.0932 11.0852C27.5096 14.2481 27.6292 14.7575 27.5362 15.896C27.4432 17.0344 28.0944 20.1042 29.3303 21.6458C30.0922 22.5938 30.8098 23.1696 31.3812 23.5196Z" fill="#031F43"/>
<path d="M50.1548 6.45168C50.1548 6.45168 51.9222 7.98881 52.2146 11.6655C52.507 15.3422 50.6288 21.4376 49.7428 19.7631C49.6498 19.5815 50.0485 9.60567 48.9366 7.99324C47.8203 6.38524 50.1548 6.45168 50.1548 6.45168Z" fill="#031F43"/>
<path d="M49.9466 18.6779C49.9466 18.8949 48.8614 26.0445 46.6952 28.286C43.6741 31.4046 40.7372 30.7224 39.1823 29.7301C36.7991 28.2151 34.9209 25.1054 34.9209 25.1054" stroke="#031F43" stroke-width="0.55197" stroke-linecap="round" stroke-linejoin="round"/>
<path d="M47.3813 16.1042C47.3813 16.1042 48.5065 16.6137 49.831 16.1042" stroke="#031F43" stroke-width="0.55197" stroke-linecap="round" stroke-linejoin="round"/>
<path d="M40.5908 16.2061C40.5908 16.2061 41.716 16.7155 43.0405 16.2061" stroke="#031F43" stroke-width="0.55197" stroke-linecap="round" stroke-linejoin="round"/>
<path d="M32.0988 27.4221L29.9858 28.1265L39.4655 40.552L34.1498 47.7902L25.5693 34.5319L29.091 27.1032L32.2273 25.761L32.0988 27.4221Z" fill="#12594D" stroke="#031F43" stroke-width="0.55197" stroke-miterlimit="10" stroke-linecap="round" stroke-linejoin="round"/>
<path d="M39.4658 40.5519C39.5411 40.3127 43.8469 33.3181 43.8469 33.3181L44.0595 30.2084L44.9543 29.7787L47.0141 35.4355L45.9864 47.7369L39.4658 40.5519Z" fill="#12594D" stroke="#031F43" stroke-width="0.55197" stroke-miterlimit="10" stroke-linecap="round" stroke-linejoin="round"/>
<path d="M39.4924 41.1323L37.189 44.2907L38.5578 47.1258L40.7372 47.1789L42.1547 43.9851L39.4924 41.1323Z" fill="#45D62F"/>
<path d="M40.7101 46.5986C40.7101 46.5986 41.4189 65.2257 42.1808 73.3942C42.9427 81.5627 45.698 93.8198 45.698 93.8198L41.8973 98.9495L36.2936 93.7223C36.2936 93.7223 35.6292 81.7531 35.9127 71.3033C36.1962 60.8535 38.5351 46.5454 38.5351 46.5454L40.7101 46.5986Z" fill="#45D62F"/>
<path d="M24.0101 140.279C24.0101 140.279 22.3888 137.413 22.0654 136.009" stroke="#031F43" stroke-width="0.55197" stroke-linecap="round" stroke-linejoin="round"/>
<path d="M21.1971 140.713C21.1971 140.713 19.5758 137.847 19.2524 136.443" stroke="#031F43" stroke-width="0.55197" stroke-linecap="round" stroke-linejoin="round"/>
<path d="M63.8714 69.0181C63.8714 69.0181 63.4082 76.488 63.7776 79.451C64.147 82.4141 64.5163 91.4621 63.7776 94.6992C63.0388 97.9403 61.2818 107.029 61.1865 109.249C61.0951 111.47 60.7217 116.097 60.4477 117.396C60.1697 118.69 57.1152 122.766 56.1898 122.948C55.2643 123.135 53.4134 123.226 52.3966 122.857C51.3798 122.488 50.359 121.84 50.359 121.84C50.359 121.84 48.9688 122.305 48.5995 122.118C48.2301 121.932 49.4336 115.731 49.6163 114.067C49.8029 112.403 52.5793 108.328 53.3181 107.124C54.0569 105.921 55.9078 101.107 56.0945 100.09C56.2811 99.0732 57.1987 87.2567 57.5283 83.1219C57.858 78.9872 58.9623 70.6231 58.9623 70.6231L63.8714 69.0181Z" fill="white" stroke="#031F43" stroke-width="0.55197" stroke-linecap="round" stroke-linejoin="round"/>
<path d="M50.3589 121.836C50.3589 121.836 51.3559 119.453 51.7292 117.976C52.0986 116.498 52.0986 115.462 52.0986 115.462" stroke="#031F43" stroke-width="0.55197" stroke-linecap="round" stroke-linejoin="round"/>
<path d="M52.2895 122.42C52.2895 122.42 53.7433 119.85 54.0332 118.591" stroke="#031F43" stroke-width="0.55197" stroke-linecap="round" stroke-linejoin="round"/>
<path d="M54.812 122.81C54.812 122.81 56.2657 120.24 56.5557 118.981" stroke="#031F43" stroke-width="0.55197" stroke-linecap="round" stroke-linejoin="round"/>
</svg>
