<svg width="350" height="350" viewBox="0 0 350 350" fill="none" xmlns="http://www.w3.org/2000/svg">
<path d="M64.2822 160.405C75.5704 144.627 92.4871 137.476 92.4871 137.476C93.0393 137.246 90.6864 115.63 90.6383 114.097C89.9249 88.8452 94.1129 62.5714 113.095 44.3375C136.823 21.5589 179.877 16.8392 207.097 36.03C206.754 35.7762 216.053 28.4463 216.838 27.9764C221.919 24.9103 227.652 23.0875 233.57 22.6565C257.388 20.9415 279.23 39.6556 288.165 62.2936C297.1 84.9316 295.049 136.512 278.657 151.388" stroke="#CCDDE2" stroke-width="1.7675"/>
<path d="M54.1055 187.777C54.6922 181.562 56.2899 175.486 58.8354 169.786C59.0778 169.244 59.3316 168.714 59.5969 168.195" stroke="#CCDDE2" stroke-width="1.7675"/>
<path d="M83.5414 253.441C80.7974 250.947 78.2557 248.409 75.9268 245.857" stroke="#CCDDE2" stroke-width="1.7675"/>
<path d="M312.2 179.281C312.22 180.996 312.2 182.745 312.117 184.498C311.63 195.34 309.308 206.546 303.505 215.676C302.448 217.361 301.27 218.966 299.979 220.478C287.631 218.849 285.789 206.254 271.51 199.133C254.404 190.582 226.395 193.645 226.395 193.645L240.194 180.917C239.456 142.583 211.313 144.936 211.313 144.936L209.883 148.438C210.969 145.266 212.068 142.309 213.179 139.565L213.241 139.421C226.275 107.048 239.779 103.035 250.285 98.3601C252.795 97.7639 255.364 97.4578 257.944 97.4477C284.804 97.3037 300.569 124.658 307.463 146.679C309.178 152.167 311.816 163.904 312.169 177.103C312.176 177.809 312.2 178.547 312.2 179.281Z" fill="#0E343D"/>
<path d="M327.292 322.956C325.206 325.827 321.766 327.391 318.22 327.391H277.471C274.305 327.437 271.266 326.142 269.105 323.828C269.085 323.828 269.105 323.828 269.105 323.828C268.96 323.681 268.825 323.525 268.701 323.361C267.424 321.779 266.625 319.866 266.399 317.846C266.193 315.99 267.572 314.34 269.438 314.416C270.9 314.472 272.096 315.6 272.237 317.057C272.237 317.204 272.268 317.348 272.288 317.492C272.439 318.329 272.807 319.112 273.355 319.763C274.337 320.924 275.797 321.57 277.317 321.516H318.394C319.883 321.541 321.307 320.915 322.294 319.801C323.413 318.506 323.768 316.718 323.227 315.095L304.88 260.541C304.73 260.122 304.553 259.714 304.349 259.32C302.149 254.674 297.446 251.734 292.306 251.794C284.581 251.887 274.775 251.907 273.852 251.907C253.296 251.832 243.943 251.832 238.798 251.969C239.151 250.705 239.789 249.538 240.664 248.56C240.664 248.56 240.684 248.539 240.684 248.529C241.939 247.192 243.656 246.383 245.486 246.268C253.108 245.644 260.654 244.505 267.984 242.516C280.918 239.011 293.256 232.998 301.828 223.329C306 218.648 309.154 213.151 311.089 207.187C312.59 202.451 313.536 197.557 313.908 192.603C314.041 191.039 314.123 189.463 314.155 187.876V187.804C314.155 187.441 314.176 187.067 314.176 186.703C314.222 184.443 314.119 182.182 313.867 179.936C316.107 179.953 318.252 180.841 319.849 182.412C319.989 182.782 320.092 183.164 320.157 183.554C320.219 183.924 320.25 184.298 320.25 184.672V229.04C320.257 235.161 317.813 241.03 313.462 245.335C309.895 248.868 308.88 254.229 310.571 258.946L328.804 313.201C329.923 316.505 329.358 320.147 327.292 322.956Z" fill="#00C8A6"/>
<path d="M75.9307 321.588V197.206H83.5418V321.639L75.9307 321.588Z" fill="#2E2E2E"/>
<path d="M226.398 193.628C231.848 193.049 238.153 192.363 244.207 192.5" stroke="#12594D" stroke-width="1.7675"/>
<path d="M196.708 199.123C187.056 201.558 177.665 205.074 169.652 210.919C156.206 220.715 150.06 238.99 155.555 254.823C155.555 254.843 177.164 317.177 177.164 317.177H171.477C169.001 317.176 166.628 318.164 164.884 319.921C163.193 321.601 162.36 324.404 162.36 326.976H213.546L194.094 263.35C193.11 260.169 193.7 256.71 195.682 254.034C197.664 251.359 200.801 249.787 204.13 249.801C215.213 250.113 225.506 250.539 236.715 250.052" stroke="#12594D" stroke-width="1.7675"/>
<path d="M312.278 185.016V184.947C311.781 171.57 311.108 158.371 307.449 146.668C300.554 124.648 284.79 97.2933 257.93 97.4373C255.35 97.4474 252.78 97.7535 250.271 98.3497C232.565 102.558 220.268 120.7 213.227 139.41L213.165 139.554C212.493 141.349 211.871 143.14 211.299 144.926C210.911 146.128 210.433 147.298 209.869 148.428C205.454 157.325 196.033 162.602 186.14 161.719C153.623 158.762 110.769 157.075 97.272 179.922" stroke="#12594D" stroke-width="1.7675"/>
<path d="M259.068 160.134C254.335 165.849 249.351 171.368 244.199 176.705C233.652 187.639 224.552 199.253 208.184 200.029C195.126 200.656 182.696 195.645 170.348 192.17C157.139 188.456 150.454 185.485 138.144 181.733C134.599 180.656 130.92 180.079 127.216 180.018L114.823 180.114" stroke="#12594D" stroke-width="1.7675"/>
<path d="M210.733 317.98C211.913 317.45 213.193 317.179 214.486 317.184H220.187C220.187 317.184 208.271 294.021 198.742 278.603" stroke="#12594D" stroke-width="1.7675"/>
<path d="M218.561 250.103L258.417 327.391H213.333H205.156" stroke="#12594D" stroke-width="1.7675"/>
<path fill-rule="evenodd" clip-rule="evenodd" d="M327.291 322.956C325.206 325.827 321.766 327.391 318.219 327.391H277.47C274.092 327.391 270.796 325.992 268.69 323.351C267.413 321.769 266.614 319.856 266.388 317.835C266.182 315.98 267.561 314.33 269.427 314.405C270.889 314.462 272.085 315.59 272.226 317.046C272.309 318.043 272.7 318.988 273.344 319.753C274.34 320.895 275.791 321.537 277.306 321.505H318.394C319.882 321.531 321.307 320.904 322.294 319.79C323.412 318.496 323.767 316.708 323.227 315.085L304.88 260.541C302.976 255.247 297.931 251.738 292.305 251.794C284.581 251.887 274.775 251.907 273.852 251.907C250.963 251.835 241.953 251.835 237.178 252.01C237.028 252.009 236.885 251.949 236.779 251.842C236.674 251.735 236.615 251.591 236.616 251.441C236.609 249.323 237.386 247.278 238.797 245.699C238.808 245.691 238.816 245.678 238.818 245.665C240.074 244.331 241.791 243.524 243.62 243.408C251.241 242.784 258.787 241.645 266.117 239.655C279.052 236.15 291.389 230.137 299.961 220.468C304.133 215.787 307.287 210.291 309.222 204.326C310.72 199.592 311.662 194.7 312.031 189.749C312.166 188.18 312.248 186.605 312.278 185.022V184.947C312.278 184.587 312.299 184.213 312.299 183.849C312.345 181.589 312.242 179.328 311.99 177.082C315.722 177.061 319.485 179.774 320.136 183.561C320.198 183.931 320.229 184.305 320.229 184.679V229.04C320.236 235.161 317.792 241.03 313.441 245.335C309.874 248.868 308.858 254.229 310.549 258.946L328.783 313.201C329.907 316.502 329.35 320.143 327.291 322.956V322.956Z" stroke="#12594D" stroke-width="1.7675"/>
<rect x="20.6494" y="187.78" width="115.581" height="9.42221" rx="4.71111" stroke="#12594D" stroke-width="1.7675"/>
<rect x="55.8926" y="322.178" width="48.2018" height="5.27534" rx="2.63767" stroke="#12594D" stroke-width="1.7675"/>
<path fill-rule="evenodd" clip-rule="evenodd" d="M69.9932 183.551V184.024C70.0618 187.279 73.1248 187.777 75.7659 187.797L126.825 187.763C129.061 187.763 130.907 186.048 130.91 183.942V183.853C130.869 181.795 129.071 180.118 126.863 180.114C126.863 180.114 98.2975 180.011 76.174 179.946C75.7761 181.105 74.7677 182.004 73.5089 182.738C72.426 183.306 71.2154 183.586 69.9932 183.551Z" stroke="#12594D" stroke-width="1.7675"/>
<path fill-rule="evenodd" clip-rule="evenodd" d="M41.9153 137.692C41.926 138.234 42.0811 138.763 42.3646 139.225L66.0316 178.975C66.6509 179.942 67.6456 180.606 68.7756 180.807C69.7213 180.993 70.7013 180.887 71.5848 180.502C73.0357 179.857 73.8726 178.557 73.8452 177.24C73.84 177.074 73.8228 176.909 73.7937 176.746C73.7209 176.383 73.5863 176.035 73.3958 175.717L49.7288 135.967C48.6998 134.228 46.1822 133.545 44.1585 134.44C42.7145 135.071 41.8776 136.371 41.9153 137.692V137.692Z" stroke="#12594D" stroke-width="1.7675"/>
<path d="M105.912 180.114C105.912 180.114 108.762 177.401 115.317 173.093" stroke="#12594D" stroke-width="1.7675"/>
<path d="M129.154 135.524L118.765 147.045C117.262 148.713 114.717 148.91 112.975 147.495C112.038 146.734 111.471 145.608 111.419 144.403C111.367 143.197 111.833 142.026 112.701 141.187L114.601 139.348C114.673 139.246 114.755 139.153 114.837 139.057L116.209 137.544L128.009 124.723C130.918 121.525 135.251 120.022 139.516 120.73L139.691 120.761" stroke="#12594D" stroke-width="1.7675"/>
<path d="M143.786 138.642H133.394C130.931 138.642 128.935 136.646 128.935 134.183C128.935 131.72 130.931 129.724 133.394 129.724H148.143" stroke="#12594D" stroke-width="1.7675"/>
<path d="M135.819 138.642C135.674 140.463 134.978 141.811 133.953 142.758C131.312 145.159 126.468 144.895 123.1 143.245" stroke="#12594D" stroke-width="1.7675"/>
<path d="M116.226 137.537C113.239 133.939 113.853 129.048 116.175 125.265C125.762 109.61 144.037 119.252 156.052 125.999C163.205 130.034 170.042 134.605 176.505 139.671C182.227 144.13 187.522 149.467 194.396 152.149C198.512 153.758 203.373 154.142 207.468 152.286" stroke="#12594D" stroke-width="1.7675"/>
<path d="M133.953 142.73C141.202 148.082 148.125 153.862 154.684 160.042" stroke="#12594D" stroke-width="1.7675"/>
<path d="M222.166 58.5789C223.901 60.1636 226.566 60.2493 228.772 60.0367C231.591 59.7794 234.383 59.0969 237.144 58.5206L238.822 58.4349H238.846C239.495 58.4412 240.116 58.7053 240.57 59.1691C241.025 59.6329 241.277 60.2584 241.271 60.9079C241.309 64.5278 240.948 68.1408 240.194 71.6815L243.408 73.4205C243.823 72.2612 243.356 70.5908 244.341 70.4639C244.972 69.2874 245.912 68.5225 247.386 69.3971C250.274 71.1121 251.413 76.1508 248.631 78.4592L250.415 81.7932C251.697 84.2033 254.505 85.37 257.117 84.5783L255.296 80.5515C259.57 81.3095 262.561 75.9759 261.257 72.7208C260.369 70.4845 260.414 68.7454 261.6 66.5708C261.679 66.4233 260.873 66.2278 260.942 66.0769C260.983 64.482 260.54 62.7738 259.772 61.9609C258.421 60.5066 255.701 60.2459 256.256 58.037C256.503 57.0756 256.595 56.0809 256.527 55.0906C256.234 52.4708 254.822 50.1058 252.655 48.6045C250.405 47.1262 247.887 48.4673 245.483 48.4296C242.564 48.3987 240.472 45.9222 237.412 45.8845C235.889 45.8605 234.668 46.4539 233.365 47.1913C232.274 47.819 231.2 48.4741 230.158 49.1842C229.115 49.8942 228.189 50.5081 226.944 50.5116C225.321 50.5321 223.754 49.5031 222.121 49.9833C221.296 50.2054 220.57 50.7013 220.063 51.3896C219.545 53.921 220.481 57.0526 222.166 58.5789Z" fill="#00C8A6"/>
<path d="M243.421 73.0431C243.631 72.1495 243.939 71.2821 244.341 70.4568C244.972 69.2804 245.915 68.5155 247.386 69.3901C250.275 71.1051 251.413 76.1438 248.632 78.4522L250.415 81.7861C251.697 84.1962 254.505 85.363 257.117 84.5713" stroke="#12594D" stroke-width="1.7675" stroke-linecap="round" stroke-linejoin="round"/>
<path d="M255.296 80.5446L257.11 84.5782C257.567 85.5421 258.873 88.5056 260.242 91.5857C261.216 93.7912 262.231 96.0619 262.986 97.7323" stroke="#12594D" stroke-width="1.7675" stroke-linecap="round" stroke-linejoin="round"/>
<path d="M225.904 66.0597C225.904 66.0597 231.251 64.7289 233.587 68.7832" stroke="#12594D" stroke-width="1.7675"/>
<path d="M227.478 78.1641C226.038 78.5586 224.1 78.9119 222.988 77.6565L225.41 72.5595C225.998 71.3095 226.143 69.8967 225.821 68.5533C225.293 66.2929 223.973 62.8595 225.389 59.8788" stroke="#12594D" stroke-width="1.7675"/>
<ellipse cx="229.643" cy="70.4691" rx="1.42345" ry="1.67384" transform="rotate(-58.92 229.643 70.4691)" fill="#12594D"/>
<path d="M238.878 103.423L237.609 89.339" stroke="#12594D" stroke-width="1.7675"/>
<path d="M243.406 73.4135C243.406 73.29 243.406 73.1631 243.406 73.0396C243.413 72.9071 243.413 72.7743 243.406 72.6417" stroke="#12594D" stroke-width="1.7675" stroke-linecap="round" stroke-linejoin="round"/>
<path d="M243.41 73.4169L242.305 72.8235L240.192 71.6744" stroke="#12594D" stroke-width="1.7675" stroke-linecap="round" stroke-linejoin="round"/>
<path d="M234.567 78.5276C234.567 78.5276 234.461 82.0948 230.383 83.5628" stroke="#12594D" stroke-width="1.7675"/>
<path d="M255.295 80.5445C259.568 81.3025 262.559 75.9688 261.256 72.7138C260.368 70.4774 260.412 68.7384 261.599 66.5638C261.678 66.4163 261.743 66.2722 261.812 66.1282C262.693 64.1833 262.381 62.2557 260.995 60.6024C259.682 59.0383 257.702 58.4896 258.272 56.2086C258.528 55.2184 258.623 54.1934 258.553 53.173C258.254 50.4785 256.803 48.0455 254.574 46.5017C252.262 44.9685 249.659 46.3576 247.169 46.3199C244.171 46.2753 242.007 43.7234 238.861 43.6857C237.287 43.6857 236.018 44.2722 234.68 45.0337C233.555 45.6819 232.44 46.3645 231.377 47.0917C230.314 47.8188 229.319 48.4637 228.057 48.4637C226.383 48.4637 224.768 47.4347 223.094 47.9149C221.42 48.3951 220.425 49.7808 220.096 51.386C219.561 53.9036 220.497 57.049 222.181 58.589C223.917 60.1737 226.582 60.2594 228.788 60.0468C231.607 59.7895 234.399 59.1069 237.16 58.5307L238.837 58.445H238.861C239.511 58.4513 240.131 58.7154 240.586 59.1792C241.041 59.643 241.293 60.2685 241.286 60.918C241.325 64.5379 240.964 68.1509 240.209 71.6916" stroke="#12594D" stroke-width="1.7675"/>
<path d="M244.055 84.4477C244.055 84.4477 237.682 92.913 232.019 91.0162C226.356 89.1194 226.068 78.6407 226.068 78.6407" stroke="#12594D" stroke-width="1.7675" stroke-linecap="round" stroke-linejoin="round"/>
<path d="M75.9297 321.588V197.206H83.5409V321.639" stroke="#12594D" stroke-width="1.7675"/>
<circle cx="82.9347" cy="112.543" r="12.2863" fill="#00C8A6"/>
<path d="M78.1302 115.712C77.7709 115.467 77.4516 115.167 77.1835 114.824C76.202 113.609 76.283 111.852 77.3722 110.732C78.0682 110.016 79.0596 109.666 80.051 109.789C79.8284 108.391 80.5586 107.015 81.8408 106.416C83.123 105.816 84.6471 106.139 85.5767 107.206C86.5337 108.29 86.983 109.902 87.1511 111.322C87.238 112.063 87.2495 112.811 87.1854 113.555C87.1545 113.929 87.0208 116.086 86.6709 116.223C84.3591 117.108 80.418 117.3 78.1302 115.712Z" fill="white"/>
<circle cx="169.622" cy="115.345" r="6.5856" fill="#00C8A6"/>
<path d="M169.169 112.293C169.369 112.172 169.588 112.085 169.817 112.035C170.631 111.84 171.464 112.281 171.759 113.064C171.947 113.566 171.89 114.127 171.604 114.58C172.316 114.807 172.8 115.468 172.8 116.215C172.8 116.962 172.316 117.623 171.604 117.849C170.819 118.021 170 117.961 169.248 117.678C168.869 117.55 168.503 117.384 168.157 117.184C167.982 117.084 166.964 116.529 166.981 116.326C167.08 114.996 167.886 113.04 169.169 112.293Z" fill="white"/>
<path d="M118.559 107.834C119.297 108.45 120.121 108.954 121.005 109.333C124.315 110.714 128.108 110.252 130.989 108.115C132.087 107.278 133.047 106.122 134.183 105.282C134.975 104.661 135.926 104.276 136.927 104.171C137.26 104.18 137.59 104.11 137.891 103.968C138.652 103.495 137.753 102.709 137.675 102.154C137.569 101.265 137.792 100.368 138.302 99.6326C140.988 95.6268 140.48 90.2828 137.086 86.8557C133.692 83.4286 128.353 82.8678 124.322 85.5148C122.39 86.7804 120.957 88.6566 119.502 90.4505C118.22 92.0318 116.878 93.589 115.939 95.3966C113.73 99.6464 115.019 104.881 118.559 107.834Z" fill="#00C8A6"/>
<circle cx="131.659" cy="91.6272" r="2.19863" fill="white"/>
<circle cx="127.405" cy="96.8272" r="2.19863" fill="white"/>
<circle cx="123.416" cy="101.708" r="2.19863" fill="white"/>
<path opacity="0.46" d="M187.005 81.1175C186.657 82.8615 185.54 84.3552 183.966 85.182L165.629 94.9232C164.232 95.6686 162.596 95.8272 161.083 95.3638C159.569 94.9003 158.302 93.8532 157.562 92.4536L142.947 64.9348C141.405 62.0287 142.508 58.4228 145.413 56.8777L163.763 47.1399C166.524 45.6719 170.335 46.7969 171.817 49.6061L186.436 77.1147C187.093 78.3394 187.295 79.7579 187.005 81.1175Z" fill="#00C8A6"/>
<path d="M181.561 79.032L163.681 72.2166C163.21 72.0341 162.941 71.5373 163.046 71.0435L167.193 51.9693C167.289 51.554 167.632 51.2411 168.054 51.1825C168.476 51.1239 168.891 51.3318 169.097 51.7052L182.83 77.588C183.029 77.9654 182.974 78.4264 182.693 78.7468C182.411 79.0673 181.961 79.1807 181.561 79.032Z" fill="white"/>
<path opacity="0.46" d="M208.271 100.267C209.031 100.812 209.502 101.673 209.554 102.606L210.24 113.51C210.292 114.342 210.012 115.16 209.46 115.784C208.909 116.408 208.131 116.787 207.3 116.837L190.936 117.846C189.209 117.949 187.724 116.636 187.615 114.91L186.946 103.999C186.885 102.288 188.174 100.829 189.879 100.679L206.24 99.6497C206.969 99.609 207.688 99.8278 208.271 100.267Z" fill="#00C8A6"/>
<path d="M206.096 102.421L198.934 109.511C198.746 109.689 198.459 109.709 198.248 109.559L190.016 103.419C189.836 103.283 189.76 103.05 189.825 102.834C189.89 102.618 190.083 102.466 190.308 102.452L205.702 101.502C205.922 101.496 206.123 101.625 206.21 101.828C206.297 102.03 206.252 102.265 206.096 102.421Z" fill="white"/>
<g opacity="0.46">
<path d="M97.1394 160.186C96.0656 160.362 94.9795 160.454 93.8912 160.46C83.4709 160.46 83.8207 150.798 83.8207 150.798L92.454 152.664C91.7917 151.041 91.9794 149.195 92.9548 147.738C94.9305 144.85 99.5198 146.335 99.5198 146.335L102.374 144.497L101.756 147.927L105.581 147.282L103.615 149.556C106.256 152.094 109.621 159.822 101.506 163.839C93.3904 167.855 89.8884 163.043 89.8884 163.043L93.8912 160.464L97.1394 160.186Z" fill="#00C8A6"/>
</g>
<circle cx="96.9673" cy="149.488" r="1.24852" fill="white"/>
<path d="M118.731 327.391H261.512" stroke="#12594D" stroke-width="1.1025"/>
</svg>
