<svg width="28" height="28" viewBox="0 0 28 28" fill="none" xmlns="http://www.w3.org/2000/svg">
<g clip-path="url(#clip0_3_472)" filter="url(#filter0_d_3_472)">
<g filter="url(#filter1_d_3_472)">
<path d="M24.0001 10.0613C24.0001 4.50378 19.5226 -0.0012207 14.0001 -0.0012207C8.47506 2.9297e-05 3.99756 4.50378 3.99756 10.0625C3.99756 15.0838 7.65506 19.2463 12.4351 20.0013V12.97H9.89756V10.0625H12.4376V7.84378C12.4376 5.32253 13.9313 3.93003 16.2151 3.93003C17.3101 3.93003 18.4538 4.12628 18.4538 4.12628V6.60128H17.1926C15.9513 6.60128 15.5638 7.37753 15.5638 8.17378V10.0613H18.3363L17.8938 12.9688H15.5626V20C20.3426 19.245 24.0001 15.0825 24.0001 10.0613Z" fill="white"/>
</g>
</g>
<defs>
<filter id="filter0_d_3_472" x="0" y="0" width="28" height="28" filterUnits="userSpaceOnUse" color-interpolation-filters="sRGB">
<feFlood flood-opacity="0" result="BackgroundImageFix"/>
<feColorMatrix in="SourceAlpha" type="matrix" values="0 0 0 0 0 0 0 0 0 0 0 0 0 0 0 0 0 0 127 0" result="hardAlpha"/>
<feOffset dy="4"/>
<feGaussianBlur stdDeviation="2"/>
<feComposite in2="hardAlpha" operator="out"/>
<feColorMatrix type="matrix" values="0 0 0 0 0 0 0 0 0 0 0 0 0 0 0 0 0 0 0.25 0"/>
<feBlend mode="normal" in2="BackgroundImageFix" result="effect1_dropShadow_3_472"/>
<feBlend mode="normal" in="SourceGraphic" in2="effect1_dropShadow_3_472" result="shape"/>
</filter>
<filter id="filter1_d_3_472" x="-0.00244141" y="-0.0012207" width="28.0024" height="28.0024" filterUnits="userSpaceOnUse" color-interpolation-filters="sRGB">
<feFlood flood-opacity="0" result="BackgroundImageFix"/>
<feColorMatrix in="SourceAlpha" type="matrix" values="0 0 0 0 0 0 0 0 0 0 0 0 0 0 0 0 0 0 127 0" result="hardAlpha"/>
<feOffset dy="4"/>
<feGaussianBlur stdDeviation="2"/>
<feComposite in2="hardAlpha" operator="out"/>
<feColorMatrix type="matrix" values="0 0 0 0 0 0 0 0 0 0 0 0 0 0 0 0 0 0 0.25 0"/>
<feBlend mode="normal" in2="BackgroundImageFix" result="effect1_dropShadow_3_472"/>
<feBlend mode="normal" in="SourceGraphic" in2="effect1_dropShadow_3_472" result="shape"/>
</filter>
<clipPath id="clip0_3_472">
<rect width="20" height="20" fill="white" transform="translate(4)"/>
</clipPath>
</defs>
</svg>
