<svg width="22" height="18" viewBox="0 0 22 18" fill="none" xmlns="http://www.w3.org/2000/svg">
<path fill-rule="evenodd" clip-rule="evenodd" d="M0.25 9C0.25 4.16751 4.16751 0.25 9 0.25H13C17.8325 0.25 21.75 4.16751 21.75 9C21.75 13.8325 17.8325 17.75 13 17.75H3C1.48122 17.75 0.25 16.5188 0.25 15V9ZM9 1.75C4.99594 1.75 1.75 4.99594 1.75 9V15C1.75 15.6904 2.30964 16.25 3 16.25H13C17.0041 16.25 20.25 13.0041 20.25 9C20.25 4.99594 17.0041 1.75 13 1.75H9Z" fill="#6A8580"/>
<path fill-rule="evenodd" clip-rule="evenodd" d="M6.25 7C6.25 6.58579 6.58579 6.25 7 6.25H11C11.4142 6.25 11.75 6.58579 11.75 7C11.75 7.41421 11.4142 7.75 11 7.75H7C6.58579 7.75 6.25 7.41421 6.25 7ZM6.25 11C6.25 10.5858 6.58579 10.25 7 10.25H15C15.4142 10.25 15.75 10.5858 15.75 11C15.75 11.4142 15.4142 11.75 15 11.75H7C6.58579 11.75 6.25 11.4142 6.25 11Z" fill="#6A8580"/>
</svg>
