<svg width="26" height="30" viewBox="0 0 26 30" fill="none" xmlns="http://www.w3.org/2000/svg">
<g filter="url(#filter0_d_15_626)">
<path fill-rule="evenodd" clip-rule="evenodd" d="M16.337 2.76279C16.468 2.36983 16.8928 2.15746 17.2857 2.28845L17.4397 2.33976C19.4552 3.01162 21.0369 4.59326 21.7087 6.60884L21.7601 6.76279C21.891 7.15575 21.6787 7.58049 21.2857 7.71147C20.8928 7.84246 20.468 7.63009 20.337 7.23713L20.2857 7.08318C19.7632 5.5155 18.533 4.28535 16.9653 3.76279L16.8114 3.71147C16.4184 3.58049 16.206 3.15575 16.337 2.76279Z" fill="white"/>
<path fill-rule="evenodd" clip-rule="evenodd" d="M9.76014 2.76279C9.62915 2.36983 9.20441 2.15746 8.81145 2.28845L8.6575 2.33976C6.64192 3.01162 5.06029 4.59326 4.38843 6.60884L4.33711 6.76279C4.20613 7.15575 4.4185 7.58049 4.81145 7.71147C5.20441 7.84246 5.62915 7.63009 5.76014 7.23713L5.81145 7.08318C6.33401 5.5155 7.56417 4.28535 9.13185 3.76279L9.2858 3.71147C9.67875 3.58049 9.89112 3.15575 9.76014 2.76279Z" fill="white"/>
<path fill-rule="evenodd" clip-rule="evenodd" d="M10.2983 4.54969C10.5073 3.24601 11.6373 2.25 12.9999 2.25C14.3625 2.25 15.4924 3.24601 15.7014 4.54969C17.5693 5.35443 18.9746 6.99155 19.2047 9.01871L19.596 12.4663C19.6488 12.9315 19.8459 13.3854 20.1792 13.777C20.8759 14.5954 20.8978 15.6243 20.4437 16.4246C19.9969 17.2119 19.114 17.75 18.0549 17.75H7.94482C6.88575 17.75 6.00283 17.2119 5.55606 16.4246C5.10189 15.6243 5.12386 14.5954 5.82056 13.777C6.15385 13.3854 6.35096 12.9315 6.40376 12.4663L6.79505 9.01871C7.02513 6.99155 8.43041 5.35443 10.2983 4.54969ZM12.9999 3.75C12.3171 3.75 11.7637 4.30347 11.7637 4.9862V5.07695C11.7637 5.39753 11.5599 5.68267 11.2566 5.78652C9.60728 6.35122 8.45836 7.66468 8.28548 9.18787L7.89419 12.6354C7.80605 13.412 7.47939 14.1424 6.96278 14.7493C6.69959 15.0584 6.69821 15.398 6.86063 15.6843C7.03046 15.9835 7.40406 16.25 7.94482 16.25H18.0549C18.5957 16.25 18.9693 15.9835 19.1391 15.6843C19.3015 15.398 19.3001 15.0584 19.0369 14.7493C18.5203 14.1424 18.1937 13.412 18.1055 12.6354L17.7142 9.18787C17.5414 7.66468 16.3924 6.35122 14.7431 5.78652C14.4398 5.68267 14.2361 5.39753 14.2361 5.07695V4.9862C14.2361 4.30347 13.6826 3.75 12.9999 3.75Z" fill="white"/>
<path fill-rule="evenodd" clip-rule="evenodd" d="M11.8472 19C11.8472 19.6904 12.4068 20.25 13.0972 20.25C13.7875 20.25 14.3472 19.6904 14.3472 19H15.8472C15.8472 20.5188 14.616 21.75 13.0972 21.75C11.5784 21.75 10.3472 20.5188 10.3472 19H11.8472Z" fill="white"/>
</g>
<defs>
<filter id="filter0_d_15_626" x="-3" y="0" width="32" height="32" filterUnits="userSpaceOnUse" color-interpolation-filters="sRGB">
<feFlood flood-opacity="0" result="BackgroundImageFix"/>
<feColorMatrix in="SourceAlpha" type="matrix" values="0 0 0 0 0 0 0 0 0 0 0 0 0 0 0 0 0 0 127 0" result="hardAlpha"/>
<feOffset dy="4"/>
<feGaussianBlur stdDeviation="2"/>
<feComposite in2="hardAlpha" operator="out"/>
<feColorMatrix type="matrix" values="0 0 0 0 0 0 0 0 0 0 0 0 0 0 0 0 0 0 0.25 0"/>
<feBlend mode="normal" in2="BackgroundImageFix" result="effect1_dropShadow_15_626"/>
<feBlend mode="normal" in="SourceGraphic" in2="effect1_dropShadow_15_626" result="shape"/>
</filter>
</defs>
</svg>
