<svg width="29" height="31" viewBox="0 0 29 31" fill="none" xmlns="http://www.w3.org/2000/svg">
<g filter="url(#filter0_d_15_19633)">
<path fill-rule="evenodd" clip-rule="evenodd" d="M10.6787 4C10.6787 2.48122 11.9099 1.25 13.4287 1.25H15.4287C16.9474 1.25 18.1787 2.48122 18.1787 4C18.1787 4.66881 18.9027 5.08681 19.4819 4.75241C20.7972 3.99302 22.479 4.44368 23.2384 5.75898L24.2384 7.49103C24.9978 8.80634 24.5472 10.4882 23.2319 11.2476C22.6527 11.582 22.6527 12.418 23.2319 12.7524C24.5472 13.5118 24.9978 15.1937 24.2384 16.509L23.2384 18.241C22.479 19.5563 20.7972 20.007 19.4819 19.2476C18.9027 18.9132 18.1787 19.3312 18.1787 20C18.1787 21.5188 16.9474 22.75 15.4287 22.75H13.4287C11.9099 22.75 10.6787 21.5188 10.6787 20C10.6787 19.3312 9.95466 18.9132 9.37546 19.2476C8.06015 20.007 6.37828 19.5563 5.61889 18.241L4.61889 16.509C3.8595 15.1937 4.31015 13.5118 5.62546 12.7524C6.20467 12.418 6.20467 11.582 5.62546 11.2476C4.31016 10.4882 3.8595 8.80632 4.61889 7.49102L5.61889 5.75897C6.37828 4.44366 8.06016 3.99301 9.37546 4.7524C9.95466 5.0868 10.6787 4.6688 10.6787 4ZM13.4287 2.75C12.7383 2.75 12.1787 3.30964 12.1787 4C12.1787 5.82351 10.2047 6.96318 8.62546 6.05144C8.02759 5.70626 7.26311 5.9111 6.91793 6.50897L5.91793 8.24102C5.57275 8.83888 5.7776 9.60337 6.37546 9.94855C7.95467 10.8603 7.95467 13.1397 6.37546 14.0514C5.77759 14.3966 5.57275 15.1611 5.91793 15.759L6.91793 17.491C7.26311 18.0889 8.02759 18.2937 8.62546 17.9486C10.2047 17.0368 12.1787 18.1765 12.1787 20C12.1787 20.6904 12.7383 21.25 13.4287 21.25H15.4287C16.119 21.25 16.6787 20.6904 16.6787 20C16.6787 18.1765 18.6527 17.0368 20.2319 17.9485C20.8297 18.2937 21.5942 18.0889 21.9394 17.491L22.9394 15.759C23.2846 15.1611 23.0797 14.3966 22.4819 14.0514C20.9027 13.1397 20.9027 10.8603 22.4819 9.94856C23.0797 9.60339 23.2846 8.8389 22.9394 8.24103L21.9394 6.50898C21.5942 5.91112 20.8297 5.70627 20.2319 6.05145C18.6527 6.96321 16.6787 5.8235 16.6787 4C16.6787 3.30964 16.119 2.75 15.4287 2.75H13.4287Z" fill="white"/>
<path fill-rule="evenodd" clip-rule="evenodd" d="M14.4285 9.75C13.1858 9.75 12.1785 10.7574 12.1785 12C12.1785 13.2426 13.1858 14.25 14.4285 14.25C15.6711 14.25 16.6785 13.2426 16.6785 12C16.6785 10.7574 15.6711 9.75 14.4285 9.75ZM10.6785 12C10.6785 9.92893 12.3574 8.25 14.4285 8.25C16.4995 8.25 18.1785 9.92893 18.1785 12C18.1785 14.0711 16.4995 15.75 14.4285 15.75C12.3574 15.75 10.6785 14.0711 10.6785 12Z" fill="white"/>
</g>
<defs>
<filter id="filter0_d_15_19633" x="-1" y="0" width="32" height="32" filterUnits="userSpaceOnUse" color-interpolation-filters="sRGB">
<feFlood flood-opacity="0" result="BackgroundImageFix"/>
<feColorMatrix in="SourceAlpha" type="matrix" values="0 0 0 0 0 0 0 0 0 0 0 0 0 0 0 0 0 0 127 0" result="hardAlpha"/>
<feOffset dy="4"/>
<feGaussianBlur stdDeviation="2"/>
<feComposite in2="hardAlpha" operator="out"/>
<feColorMatrix type="matrix" values="0 0 0 0 0 0 0 0 0 0 0 0 0 0 0 0 0 0 0.25 0"/>
<feBlend mode="normal" in2="BackgroundImageFix" result="effect1_dropShadow_15_19633"/>
<feBlend mode="normal" in="SourceGraphic" in2="effect1_dropShadow_15_19633" result="shape"/>
</filter>
</defs>
</svg>
