<svg width="22" height="21" viewBox="0 0 22 21" fill="none" xmlns="http://www.w3.org/2000/svg">
<g filter="url(#filter0_d_14_385)">
<path d="M10.7622 0.485124C10.9107 0.0219855 11.566 0.0219862 11.7145 0.485124L12.8992 4.18051C12.9656 4.38747 13.158 4.52786 13.3753 4.52786H17.2233C17.7061 4.52786 17.9085 5.14426 17.5198 5.43049L14.3952 7.7312C14.2223 7.85851 14.15 8.082 14.2156 8.28647L15.4063 12.0006C15.5544 12.4624 15.0243 12.8434 14.6337 12.5559L11.5348 10.274C11.3585 10.1442 11.1182 10.1442 10.9419 10.274L7.84296 12.5559C7.45243 12.8434 6.9223 12.4624 7.07037 12.0006L8.26111 8.28647C8.32666 8.082 8.25435 7.85851 8.08145 7.7312L4.9569 5.43049C4.56818 5.14426 4.77063 4.52786 5.25337 4.52786H9.10135C9.31868 4.52786 9.51113 4.38747 9.57748 4.18051L10.7622 0.485124Z" fill="#FFA94B"/>
</g>
<defs>
<filter id="filter0_d_14_385" x="0.752441" y="0.137817" width="20.9717" height="20.5177" filterUnits="userSpaceOnUse" color-interpolation-filters="sRGB">
<feFlood flood-opacity="0" result="BackgroundImageFix"/>
<feColorMatrix in="SourceAlpha" type="matrix" values="0 0 0 0 0 0 0 0 0 0 0 0 0 0 0 0 0 0 127 0" result="hardAlpha"/>
<feOffset dy="4"/>
<feGaussianBlur stdDeviation="2"/>
<feComposite in2="hardAlpha" operator="out"/>
<feColorMatrix type="matrix" values="0 0 0 0 0 0 0 0 0 0 0 0 0 0 0 0 0 0 0.25 0"/>
<feBlend mode="normal" in2="BackgroundImageFix" result="effect1_dropShadow_14_385"/>
<feBlend mode="normal" in="SourceGraphic" in2="effect1_dropShadow_14_385" result="shape"/>
</filter>
</defs>
</svg>
